<svg viewBox="0 0 48 48" fill="none" xmlns="http://www.w3.org/2000/svg">
  <rect width="48" height="48" rx="14" fill="#e8f2e8"/>
  <path d="M24 10C18 10 14 16 14 22.5C14 29.5 18.5 34 24 38C29.5 34 34 29.5 34 22.5C34 16 30 10 24 10Z" fill="#6b8f71"/>
  <path d="M24 13C20.5 13 17.5 17 17.5 22C17.5 27.5 20.5 32 24 35C27.5 32 30.5 27.5 30.5 22C30.5 17 27.5 13 24 13Z" fill="#9fbf9f"/>
  <path d="M24 16V34" stroke="#3f5a42" stroke-width="1.5" stroke-linecap="round"/>
  <path d="M24 20C21 22 19.5 24.5 19 28" stroke="#3f5a42" stroke-width="1.5" stroke-linecap="round"/>
  <path d="M24 20C27 22 28.5 24.5 29 28" stroke="#3f5a42" stroke-width="1.5" stroke-linecap="round"/>
</svg>
